<svg width="18" height="18" viewBox="0 0 18 18" fill="none" xmlns="http://www.w3.org/2000/svg">
<path fill-rule="evenodd" clip-rule="evenodd" d="M1.6875 4.5C1.6875 4.18934 1.93934 3.9375 2.25 3.9375H15.75C16.0607 3.9375 16.3125 4.18934 16.3125 4.5C16.3125 4.81066 16.0607 5.0625 15.75 5.0625H2.25C1.93934 5.0625 1.6875 4.81066 1.6875 4.5Z" fill="#F05454"/>
<path fill-rule="evenodd" clip-rule="evenodd" d="M7.5 2.0625C7.25136 2.0625 7.0129 2.16127 6.83709 2.33709C6.66127 2.5129 6.5625 2.75136 6.5625 3V3.9375H11.4375V3C11.4375 2.75136 11.3387 2.5129 11.1629 2.33709C10.9871 2.16127 10.7486 2.0625 10.5 2.0625H7.5ZM12.5625 3.9375V3C12.5625 2.45299 12.3452 1.92839 11.9584 1.54159C11.5716 1.1548 11.047 0.9375 10.5 0.9375H7.5C6.95299 0.9375 6.42839 1.1548 6.04159 1.54159C5.6548 1.92839 5.4375 2.45299 5.4375 3V3.9375H3.75C3.43934 3.9375 3.1875 4.18934 3.1875 4.5V15C3.1875 15.547 3.4048 16.0716 3.79159 16.4584C4.17839 16.8452 4.70299 17.0625 5.25 17.0625H12.75C13.297 17.0625 13.8216 16.8452 14.2084 16.4584C14.5952 16.0716 14.8125 15.547 14.8125 15V4.5C14.8125 4.18934 14.5607 3.9375 14.25 3.9375H12.5625ZM4.3125 5.0625V15C4.3125 15.2486 4.41127 15.4871 4.58709 15.6629C4.7629 15.8387 5.00136 15.9375 5.25 15.9375H12.75C12.9986 15.9375 13.2371 15.8387 13.4129 15.6629C13.5887 15.4871 13.6875 15.2486 13.6875 15V5.0625H4.3125Z" fill="#F05454"/>
</svg>
